<?xml version="1.0" encoding="iso-8859-1"?>
<!-- Generator: Adobe Illustrator 19.0.0, SVG Export Plug-In . SVG Version: 6.00 Build 0)  -->
<svg version="1.1" id="Layer_1" xmlns="http://www.w3.org/2000/svg" xmlns:xlink="http://www.w3.org/1999/xlink" x="0px" y="0px"
	 viewBox="0 0 496.8 496.8" style="enable-background:new 0 0 496.8 496.8;" xml:space="preserve">
<path style="fill:#363F3E;" d="M496,467.2c0,16-12.8,28.8-28.8,28.8H28.8C12.8,496,0,483.2,0,467.2V28.8C0,12.8,12.8,0,28.8,0H468
	c16,0,28.8,12.8,28.8,28.8v438.4H496z"/>
<path style="fill:#151918;" d="M0,28.8C0,12.8,12.8,0,28.8,0H468c16,0,28.8,12.8,28.8,28.8V468c0,16-12.8,28.8-28.8,28.8"/>
<g>
	<path style="fill:#B6B7B7;" d="M44,51.2c-5.6,8-5.6,19.2,1.6,26.4s18.4,8,26.4,1.6L44,51.2z"/>
	<path style="fill:#B6B7B7;" d="M48,47.2l28,28c5.6-8,5.6-19.2-1.6-26.4C67.2,41.6,56,40.8,48,47.2z"/>
	<path style="fill:#B6B7B7;" d="M452,51.2c5.6,8,5.6,19.2-1.6,26.4s-18.4,8-26.4,1.6L452,51.2z"/>
	<path style="fill:#B6B7B7;" d="M448,47.2l-28,28c-5.6-8-5.6-19.2,1.6-26.4C428.8,41.6,440,40.8,448,47.2z"/>
	<path style="fill:#B6B7B7;" d="M452,444.8c5.6-8,5.6-19.2-1.6-26.4c-7.2-7.2-18.4-8-26.4-1.6L452,444.8z"/>
	<path style="fill:#B6B7B7;" d="M448,448.8l-28-28c-5.6,8-5.6,19.2,1.6,26.4C428.8,454.4,440,455.2,448,448.8z"/>
	<path style="fill:#B6B7B7;" d="M44,444.8c-5.6-8-5.6-19.2,1.6-26.4c7.2-7.2,18.4-8,26.4-1.6L44,444.8z"/>
	<path style="fill:#B6B7B7;" d="M48,448.8l28-28c5.6,8,5.6,19.2-1.6,26.4C67.2,454.4,56,455.2,48,448.8z"/>
</g>
<circle style="fill:#DDDDDD;" cx="248" cy="248" r="182.4"/>
<path style="fill:#CACCCC;" d="M119.2,119.2c71.2-71.2,186.4-71.2,257.6,0s71.2,186.4,0,257.6"/>
<path style="fill:#E8A615;" d="M320.8,132c0,42.4-58.4,107.2-81.6,107.2c-24,0-51.2-65.6-51.2-107.2c0-42.4,19.2-53.6,43.2-53.6
	C254.4,78.4,320.8,89.6,320.8,132z"/>
<path style="fill:#CC8C0D;" d="M314.4,111.2C304,112,292,118.4,277.6,132c-27.2,27.2-52,83.2-44,106.4c1.6,0.8,3.2,0.8,4.8,0.8
	c24,0,81.6-65.6,81.6-107.2C320.8,124,318.4,117.6,314.4,111.2z"/>
<path style="fill:#E8A615;" d="M175.2,364c0-42.4,58.4-107.2,81.6-107.2S308,322.4,308,364c0,42.4-19.2,53.6-43.2,53.6
	C241.6,417.6,175.2,406.4,175.2,364z"/>
<path style="fill:#CC8C0D;" d="M181.6,384c10.4-0.8,22.4-7.2,36.8-20.8c27.2-27.2,52-83.2,44-106.4c-1.6-0.8-3.2-0.8-4.8-0.8
	c-24,0-81.6,65.6-81.6,107.2C175.2,372,177.6,378.4,181.6,384z"/>
<path style="fill:#E8A615;" d="M364,320.8c-42.4,0-107.2-58.4-107.2-81.6c0-24,65.6-51.2,107.2-51.2c42.4,0,53.6,19.2,53.6,43.2
	C417.6,254.4,406.4,320.8,364,320.8z"/>
<path style="fill:#CC8C0D;" d="M384.8,314.4C384,304,377.6,292,364,277.6c-27.2-27.2-83.2-52-106.4-44c-0.8,1.6-0.8,3.2-0.8,4.8
	c0,24,65.6,81.6,107.2,81.6C372,320.8,378.4,318.4,384.8,314.4z"/>
<path style="fill:#E8A615;" d="M132,175.2c42.4,0,107.2,58.4,107.2,81.6c0,24-65.6,51.2-107.2,51.2c-42.4,0-53.6-19.2-53.6-43.2
	S89.6,175.2,132,175.2z"/>
<path style="fill:#CC8C0D;" d="M111.2,181.6c0.8,10.4,7.2,22.4,20.8,36.8c27.2,27.2,83.2,52,106.4,44c0.8-1.6,0.8-3.2,0.8-4.8
	c0-24-65.6-81.6-107.2-81.6C124,175.2,117.6,177.6,111.2,181.6z"/>
<circle style="fill:#E8A615;" cx="248" cy="248" r="32.8"/>
<path style="fill:#DB960E;" d="M224.8,224.8c12.8-12.8,33.6-12.8,47.2,0c12.8,12.8,12.8,33.6,0,47.2"/>
<g>
</g>
<g>
</g>
<g>
</g>
<g>
</g>
<g>
</g>
<g>
</g>
<g>
</g>
<g>
</g>
<g>
</g>
<g>
</g>
<g>
</g>
<g>
</g>
<g>
</g>
<g>
</g>
<g>
</g>
</svg>
