<?xml version="1.0" encoding="iso-8859-1"?>
<!-- Generator: Adobe Illustrator 19.0.0, SVG Export Plug-In . SVG Version: 6.00 Build 0)  -->
<svg version="1.1" id="Capa_1" xmlns="http://www.w3.org/2000/svg" xmlns:xlink="http://www.w3.org/1999/xlink" x="0px" y="0px"
	 viewBox="0 0 512 512" style="enable-background:new 0 0 512 512;" xml:space="preserve">
<path style="fill:#B1EAD4;" d="M446.285,385.159c0,0.995-0.022,1.985-0.038,2.976H391h-19.083H140.083H121H65.752
	c-0.015-0.991-0.038-1.981-0.038-2.976c0-105.198,85.194-190.477,190.285-190.477S446.285,279.961,446.285,385.159z"/>
<path style="fill:#7CC3AC;" d="M16.581,388.135c-0.019-1.248-0.047-2.493-0.047-3.745c0-132.387,107.213-239.708,239.467-239.708
	S495.467,252.003,495.467,384.39c0,1.252-0.028,2.498-0.047,3.745h-93.542c0.031-1.245,0.047-2.493,0.047-3.745
	c0-80.673-65.333-146.072-145.925-146.072S110.075,303.716,110.075,384.39c0,1.252,0.016,2.501,0.047,3.745H16.581z"/>
<path style="fill:#61AE9F;" d="M495.467,384.39c0,1.252-0.028,2.498-0.047,3.745h-19.669c0.018-1.145,0.043-2.288,0.043-3.438
	c0-121.511-98.405-220.016-219.794-220.016S36.206,263.186,36.206,384.697c0,1.149,0.026,2.292,0.043,3.438H16.581
	c-0.019-1.248-0.047-2.493-0.047-3.745c0-132.387,107.213-239.708,239.467-239.708S495.467,252.003,495.467,384.39z"/>
<path style="fill:#FFB05F;" d="M385.477,118.288c2.348,1.145,3.324,3.978,2.156,6.316l-70.211,140.563
	c-1.137,2.276-3.876,3.217-6.176,2.132c-16.761-7.911-35.487-12.336-55.246-12.336s-38.485,4.425-55.246,12.336
	c-2.299,1.085-5.039,0.144-6.176-2.132l-70.211-140.563c-1.168-2.338-0.192-5.171,2.156-6.316C165.635,99.212,209.566,88.5,256,88.5
	S346.365,99.212,385.477,118.288z"/>
<g>
	<path style="fill:#FF904E;" d="M387.633,124.604l-70.211,140.563c-1.137,2.276-3.876,3.217-6.176,2.132
		c-4.511-2.129-9.17-3.994-13.949-5.596l74.702-149.555c4.55,1.941,9.049,3.979,13.478,6.139
		C387.825,119.433,388.801,122.266,387.633,124.604z"/>
	<path style="fill:#FF904E;" d="M256,144.682c39.1,0,76.008,9.385,108.607,26.02l-41.844,83.771
		c-20.007-10.323-42.705-16.155-66.764-16.155s-46.757,5.832-66.764,16.155l-41.844-83.771
		C179.992,154.066,216.9,144.682,256,144.682z"/>
</g>
<path style="fill:#FF733D;" d="M346.812,162.574c6.056,2.48,12.003,5.172,17.795,8.127L338.8,222.367l-16.036,32.105
	c-5.776-2.98-11.78-5.576-17.972-7.773L346.812,162.574z"/>
<path style="fill:#4A7273;" d="M512,388.55c0,4.143-3.357,7.5-7.5,7.5H7.5c-4.143,0-7.5-3.357-7.5-7.5s3.357-7.5,7.5-7.5h497
	C508.643,381.05,512,384.407,512,388.55z"/>
<path style="fill:#43545C;" d="M358.867,212.458L290.124,396.16c-2.061,5.509-8.408,8.057-13.707,5.504l-43.352-20.891
	c-5.293-2.551-7.257-9.093-4.244-14.137L329.4,198.261c4.356-7.292,13.557-10.054,21.209-6.367l0,0
	C358.265,195.583,361.845,204.499,358.867,212.458z"/>
<path style="fill:#4A7273;" d="M233.065,380.773c-5.293-2.551-7.257-9.093-4.244-14.137L329.4,198.261
	c4.356-7.292,13.557-10.054,21.209-6.367l0,0c0.972,0.469,1.877,1.023,2.713,1.647L261.51,394.48L233.065,380.773z"/>
<path style="fill:#43545C;" d="M290.959,388.506c0,19.327-15.652,34.994-34.959,34.994s-34.959-15.668-34.959-34.994
	c0-19.327,15.652-34.994,34.959-34.994S290.959,369.179,290.959,388.506z"/>
<path style="fill:#61AE9F;" d="M271.626,388.506c0,8.639-6.996,15.642-15.626,15.642s-15.626-7.003-15.626-15.642
	s6.996-15.642,15.626-15.642S271.626,379.867,271.626,388.506z"/>
<g>
</g>
<g>
</g>
<g>
</g>
<g>
</g>
<g>
</g>
<g>
</g>
<g>
</g>
<g>
</g>
<g>
</g>
<g>
</g>
<g>
</g>
<g>
</g>
<g>
</g>
<g>
</g>
<g>
</g>
</svg>
