<?xml version="1.0" encoding="iso-8859-1"?>
<!-- Generator: Adobe Illustrator 19.0.0, SVG Export Plug-In . SVG Version: 6.00 Build 0)  -->
<svg version="1.1" id="Layer_1" xmlns="http://www.w3.org/2000/svg" xmlns:xlink="http://www.w3.org/1999/xlink" x="0px" y="0px"
	 viewBox="0 0 502.596 502.596" style="enable-background:new 0 0 502.596 502.596;" xml:space="preserve">
<path style="fill:#84DBFF;" d="M336.98,141.061c-3.135-12.539-8.359-25.078-14.629-36.571l12.539-29.257l-43.886-42.841
	l-29.257,12.539c-11.494-6.269-22.988-11.494-36.571-14.629L214.727,0h-61.649l-11.494,30.302
	c-12.539,3.135-25.078,8.359-36.571,14.629L75.755,32.392L32.914,75.233l12.539,29.257c-6.269,11.494-11.494,22.988-14.629,36.571
	L0.522,152.555v61.649l30.302,11.494c3.135,12.539,8.359,25.078,14.629,36.571l-12.539,29.257L76.8,334.367l29.257-12.539
	c11.494,6.269,22.988,11.494,36.571,14.629l11.494,30.302h60.604l11.494-30.302c12.539-3.135,25.078-8.359,36.571-14.629
	l29.257,12.539l43.886-42.841l-12.539-29.257c6.269-11.494,11.494-22.988,14.629-36.571l30.302-11.494v-61.649L336.98,141.061z
	 M183.38,258.09c-41.796,0-75.233-33.437-75.233-75.233s33.437-75.233,75.233-75.233s75.233,33.437,75.233,75.233
	S225.176,258.09,183.38,258.09z"/>
<g>
	<path style="fill:#54C0EB;" d="M236.669,236.147c-29.257,29.257-76.278,29.257-105.535,0l-27.167,27.167
		c43.886,43.886,115.984,43.886,159.869,0s43.886-114.939,0-159.869l-27.167,27.167C265.927,159.869,265.927,206.89,236.669,236.147
		z"/>
	<path style="fill:#54C0EB;" d="M103.967,103.445c-43.886,43.886-43.886,114.939,0,159.869l27.167-27.167
		c-29.257-29.257-29.257-76.278,0-105.535s76.278-29.257,105.535,0l27.167-27.167C219.951,59.559,147.853,59.559,103.967,103.445z"
		/>
</g>
<path style="fill:#4CDBC4;" d="M354.743,428.408c1.045-6.269,1.045-11.494,0-17.763l10.449-10.449l-10.449-26.122h-14.629
	c-3.135-4.18-8.359-8.359-12.539-12.539v-14.629l-26.122-10.449l-10.449,10.449c-6.269-1.045-11.494-1.045-17.763,0l-10.449-10.449
	l-26.122,10.449v14.629c-4.18,3.135-8.359,8.359-12.539,12.539h-14.629l-10.449,26.122l10.449,10.449
	c-1.045,6.269-1.045,11.494,0,17.763l-10.449,10.449l10.449,26.122h14.629c3.135,4.18,8.359,8.359,12.539,12.539v14.629
	l26.122,10.449l10.449-10.449c6.269,1.045,11.494,1.045,17.763,0l10.449,10.449l26.122-10.449v-14.629
	c4.18-3.135,8.359-8.359,12.539-12.539h14.629l10.449-26.122L354.743,428.408z M271.151,450.351
	c-17.763-7.314-26.122-27.167-18.808-43.886c7.314-17.763,27.167-26.122,43.886-18.808c17.763,7.314,26.122,27.167,18.808,43.886
	C307.722,449.306,287.869,457.665,271.151,450.351z"/>
<path style="fill:#FF7058;" d="M491.624,291.527c1.045-6.269,1.045-11.494,0-17.763l10.449-10.449l-10.449-26.122h-14.629
	c-3.135-4.18-8.359-8.359-12.539-12.539v-14.629l-26.122-10.449l-10.449,10.449c-6.269-1.045-11.494-1.045-17.763,0l-10.449-10.449
	l-26.122,10.449v14.629c-4.18,3.135-8.359,8.359-12.539,12.539h-14.629l-10.449,26.122l10.449,10.449
	c-1.045,6.269-1.045,11.494,0,17.763l-10.449,10.449l10.449,26.122h14.629c3.135,4.18,8.359,8.359,12.539,12.539v14.629
	l26.122,10.449l10.449-10.449c6.269,1.045,11.494,1.045,17.763,0l10.449,10.449l26.122-10.449v-14.629
	c4.18-3.135,8.359-8.359,12.539-12.539h14.629l10.449-26.122L491.624,291.527z M406.988,314.514
	c-17.763-7.314-26.122-27.167-18.808-43.886c7.314-17.763,27.167-26.122,43.886-18.808c17.763,7.314,26.122,27.167,18.808,43.886
	C444.604,313.469,424.751,321.829,406.988,314.514z"/>
<g>
</g>
<g>
</g>
<g>
</g>
<g>
</g>
<g>
</g>
<g>
</g>
<g>
</g>
<g>
</g>
<g>
</g>
<g>
</g>
<g>
</g>
<g>
</g>
<g>
</g>
<g>
</g>
<g>
</g>
</svg>
