<svg height="480pt" viewBox="0 -76 480 480" width="480pt" xmlns="http://www.w3.org/2000/svg">
    <path d="m8 144h32v96h-32zm0 0" fill="#bddbff"/>
    <path d="m448 48h-328l-16 32h-64v192h32v32h32v-32h32v32h48v-32h32v32h192v-32h32v32h32v-232zm-264 168h-80v-80h80zm128 56c-53.019531 0-96-42.980469-96-96s42.980469-96 96-96 96 42.980469 96 96-42.980469 96-96 96zm0 0" fill="#bddbff"/>
    <path d="m312 80c-53.019531 0-96 42.980469-96 96s42.980469 96 96 96 96-42.980469 96-96-42.980469-96-96-96zm0 168c-39.765625 0-72-32.234375-72-72s32.234375-72 72-72 72 32.234375 72 72-32.234375 72-72 72zm0 0" fill="#bddbff"/>
    <path d="m336 152c-.488281-13.046875-10.953125-23.511719-24-24v48c13.046875-.488281 23.511719-10.953125 24-24zm0 0" fill="#bddbff"/>
    <path d="m279.199219 167.199219c-11.066407 6.945312-14.902344 21.25-8.800781 32.800781l41.601562-24c-6.941406-11.070312-21.25-14.90625-32.800781-8.800781zm0 0" fill="#bddbff"/>
    <path d="m320.800781 208.800781c11.550781 6.105469 25.855469 2.269531 32.800781-8.800781l-41.601562-24c-6.101562 11.550781-2.265625 25.855469 8.800781 32.800781zm0 0" fill="#bddbff"/>
    <g fill="#3d9ae2">
        <path d="m64 104h16v16h-16zm0 0"/>
        <path d="m477.65625 66.34375-24-24c-1.5-1.5-3.535156-2.34375-5.65625-2.34375h-328c-3.03125 0-5.804688 1.710938-7.160156 4.425781l-13.785156 27.574219h-51.054688v-64c0-4.417969-3.582031-8-8-8h-32v16h24v120h-24c-4.417969 0-8 3.582031-8 8v96c0 4.417969 3.582031 8 8 8h24v80h16v-48h16v24c0 4.417969 3.582031 8 8 8h32c4.417969 0 8-3.582031 8-8v-24h16v24c0 4.417969 3.582031 8 8 8h48c4.417969 0 8-3.582031 8-8v-24h16v24c0 4.417969 3.582031 8 8 8h192c4.417969 0 8-3.582031 8-8v-24h16v24c0 4.417969 3.582031 8 8 8h32c4.417969 0 8-3.582031 8-8v-232c0-2.121094-.84375-4.15625-2.34375-5.65625zm-461.65625 165.65625v-80h16v80zm448 64h-16v-24c0-4.417969-3.582031-8-8-8h-32c-4.417969 0-8 3.582031-8 8v24h-176v-24c0-4.417969-3.582031-8-8-8h-32c-4.417969 0-8 3.582031-8 8v24h-32v-24c0-4.417969-3.582031-8-8-8h-32c-4.417969 0-8 3.582031-8 8v24h-16v-24c0-4.417969-3.582031-8-8-8h-24v-176h56c3.03125 0 5.804688-1.710938 7.160156-4.425781l13.785156-27.574219h319.742188l19.3125 19.3125zm0 0"/>
        <path d="m312 72c-57.4375 0-104 46.5625-104 104s46.5625 104 104 104 104-46.5625 104-104c-.066406-57.410156-46.589844-103.933594-104-104zm0 192c-48.601562 0-88-39.398438-88-88s39.398438-88 88-88 88 39.398438 88 88c-.058594 48.578125-39.421875 87.941406-88 88zm0 0"/>
        <path d="m64 232h16v16h-16zm0 0"/>
        <path d="m432 72h16v16h-16zm0 0"/>
        <path d="m432 232h16v16h-16zm0 0"/>
        <path d="m312 96c-44.183594 0-80 35.816406-80 80s35.816406 80 80 80 80-35.816406 80-80c-.046875-44.164062-35.835938-79.953125-80-80zm0 144c-35.347656 0-64-28.652344-64-64s28.652344-64 64-64 64 28.652344 64 64c-.039062 35.328125-28.671875 63.960938-64 64zm0 0"/>
        <path d="m184 128h-80c-4.417969 0-8 3.582031-8 8v80c0 4.417969 3.582031 8 8 8h80c4.417969 0 8-3.582031 8-8v-80c0-4.417969-3.582031-8-8-8zm-8 80h-64v-64h64zm0 0"/>
        <path d="m344 152c-.5-17.460938-14.539062-31.5-32-32-4.417969 0-8 3.582031-8 8v31.199219c-.679688-.3125-1.328125-.703125-2.015625-.96875-8.761719-3.453125-18.628906-2.707031-26.769531 2.035156-14.882813 9.164063-20.023438 28.355469-11.71875 43.734375 1.0625 1.839844 2.808594 3.183594 4.859375 3.730469 2.054687.550781 4.238281.261719 6.078125-.800781l27.070312-15.632813c1.183594 16.066406 14.53125 28.519531 30.640625 28.582031 3.898438-.015625 7.765625-.738281 11.40625-2.136718 7.003907-2.597657 12.957031-7.425782 16.945313-13.742188 2.207031-3.828125.898437-8.71875-2.929688-10.929688l-27.070312-15.628906c8.4375-5.71875 13.496094-15.246094 13.503906-25.441406zm-24-13.367188c4.90625 2.65625 7.964844 7.785157 7.964844 13.367188s-3.058594 10.710938-7.964844 13.367188zm-44.359375 49.128907c-.125-5.574219 2.773437-10.773438 7.574219-13.601563 2.222656-1.324218 4.757812-2.027344 7.34375-2.039062 1.96875.019531 3.917968.398437 5.753906 1.109375.855469.328125 1.691406.71875 2.496094 1.160156zm62.238281 15.023437c-4.265625 1.773438-9.121094 1.429688-13.09375-.929687-4.804687-2.828125-7.703125-8.027344-7.578125-13.597657l23.199219 13.382813c-.8125.441406-1.65625.824219-2.527344 1.144531zm0 0"/>
    </g>
</svg>
