<?xml version="1.0" encoding="iso-8859-1"?>
<!-- Generator: Adobe Illustrator 19.0.0, SVG Export Plug-In . SVG Version: 6.00 Build 0)  -->
<svg version="1.1" id="Layer_1" xmlns="http://www.w3.org/2000/svg" xmlns:xlink="http://www.w3.org/1999/xlink" x="0px" y="0px"
	 viewBox="0 0 504.124 504.124" style="enable-background:new 0 0 504.124 504.124;" xml:space="preserve">
<path style="fill:#EFC75E;" d="M110.277,0h283.569c25.994,0,47.262,21.268,47.262,47.262v409.6
	c0,25.994-21.268,47.262-47.262,47.262H110.277c-25.994,0-47.262-21.268-47.262-47.262v-409.6C63.015,21.268,84.283,0,110.277,0z"/>
<path style="fill:#D7B354;" d="M330.831,129.969H173.293c-2.363,0-3.938,1.575-3.938,3.938v7.877c0,2.363,1.575,3.938,3.938,3.938
	h157.538c2.363,0,3.938-1.575,3.938-3.938v-7.877C334.77,131.938,333.194,129.969,330.831,129.969z M330.831,185.108H173.293
	c-2.363,0-3.938,1.575-3.938,3.938v7.877c0,2.363,1.575,3.938,3.938,3.938h157.538c2.363,0,3.938-1.575,3.938-3.938v-7.877
	C334.77,187.077,333.194,185.108,330.831,185.108z M330.831,244.185H173.293c-2.363,0-3.938,1.575-3.938,3.938V256
	c0,2.363,1.575,3.938,3.938,3.938h157.538c2.363,0,3.938-1.575,3.938-3.938v-7.877C334.77,246.154,333.194,244.185,330.831,244.185z
	"/>
<path style="fill:#F5DD9E;" d="M126.031,425.354c-8.665,0-15.754,7.089-15.754,15.754s7.089,15.754,15.754,15.754
	s15.754-7.089,15.754-15.754S134.695,425.354,126.031,425.354z M378.092,425.354c-8.665,0-15.754,7.089-15.754,15.754
	s7.089,15.754,15.754,15.754s15.754-7.089,15.754-15.754S386.757,425.354,378.092,425.354z M126.031,47.262
	c-8.665,0-15.754,7.089-15.754,15.754s7.089,15.754,15.754,15.754s15.754-7.089,15.754-15.754S134.695,47.262,126.031,47.262z
	 M378.092,70.892c8.665,0,15.754-7.089,15.754-15.754s-7.089-15.754-15.754-15.754s-15.754,7.089-15.754,15.754
	S369.428,70.892,378.092,70.892z"/>
<path style="fill:#F2F1EF;" d="M204.801,285.145V99.643c0-26.782,20.48-48.443,47.262-48.443s47.262,21.662,47.262,48.443v185.502
	c0,10.24,5.12,20.086,12.603,27.569c14.178,14.572,22.843,34.658,22.843,56.714c0.394,44.111-35.446,81.92-79.557,83.495
	c-47.262,1.969-85.858-35.84-85.858-82.708c0-22.449,8.665-42.535,23.237-57.502C199.286,305.231,204.801,295.385,204.801,285.145z"
	/>
<path style="fill:#E2574C;" d="M319.016,370.215c0,37.022-29.932,66.954-66.954,66.954s-66.954-29.932-66.954-66.954
	c0-25.6,14.178-47.655,35.446-59.077V137.846h63.015v173.292C304.837,322.56,319.016,344.615,319.016,370.215z"/>
<path style="fill:#E5685E;" d="M283.569,311.138V137.846h-31.508v299.323c37.022,0,66.954-29.932,66.954-66.954
	C319.016,344.615,304.837,322.56,283.569,311.138z"/>
<path style="fill:#CB4E44;" d="M252.063,126.031c17.329,0,31.508,5.12,31.508,11.815c0,6.695-14.178,11.815-31.508,11.815
	s-31.508-5.12-31.508-11.815C220.555,131.545,234.732,126.031,252.063,126.031z"/>
<g>
</g>
<g>
</g>
<g>
</g>
<g>
</g>
<g>
</g>
<g>
</g>
<g>
</g>
<g>
</g>
<g>
</g>
<g>
</g>
<g>
</g>
<g>
</g>
<g>
</g>
<g>
</g>
<g>
</g>
</svg>
