<?xml version="1.0" encoding="iso-8859-1"?>
<!-- Generator: Adobe Illustrator 19.0.0, SVG Export Plug-In . SVG Version: 6.00 Build 0)  -->
<svg version="1.1" id="Capa_1" xmlns="http://www.w3.org/2000/svg" xmlns:xlink="http://www.w3.org/1999/xlink" x="0px" y="0px"
	 viewBox="0 0 512 512" style="enable-background:new 0 0 512 512;" xml:space="preserve">
<g transform="matrix(1.25 0 0 -1.25 0 45)">
	<g>
		<g>
			<path style="fill:#292F33;" d="M307.2-231.378c-29.457,0-45.568,29.002-61.144,57.048c-12.39,22.3-25.202,45.352-41.256,45.352
				c-16.065,0-28.865-23.051-41.256-45.352c-15.588-28.046-31.698-57.048-61.144-57.048c-30.151,0-43.839,30.788-55.91,57.958
				c-11.924,26.852-20.821,44.442-35.112,44.442C5.097-128.978,0-123.881,0-117.6s5.097,11.378,11.378,11.378
				c30.151,0,43.839-30.788,55.91-57.958c11.924-26.84,20.821-44.442,35.112-44.442c16.065,0,28.865,23.051,41.256,45.352
				c15.588,28.046,31.698,57.048,61.144,57.048c29.457,0,45.568-29.002,61.144-57.048c12.39-22.3,25.202-45.352,41.256-45.352
				c14.29,0,23.177,17.601,35.112,44.442c12.083,27.17,25.771,57.958,55.91,57.958c6.292,0,11.378-5.097,11.378-11.378
				s-5.086-11.378-11.378-11.378c-14.29,0-23.177-17.59-35.112-44.442C351.039-200.59,337.34-231.378,307.2-231.378"/>
		</g>
	</g>
</g>
<g>
</g>
<g>
</g>
<g>
</g>
<g>
</g>
<g>
</g>
<g>
</g>
<g>
</g>
<g>
</g>
<g>
</g>
<g>
</g>
<g>
</g>
<g>
</g>
<g>
</g>
<g>
</g>
<g>
</g>
</svg>
